<?xml version="1.0" standalone="no"?>
<!DOCTYPE svg PUBLIC "-//W3C//DTD SVG 20010904//EN"
 "http://www.w3.org/TR/2001/REC-SVG-20010904/DTD/svg10.dtd">
<svg version="1.0" xmlns="http://www.w3.org/2000/svg"
 width="500.000000pt" height="500.000000pt" viewBox="0 0 500.000000 500.000000"
 preserveAspectRatio="xMidYMid meet">

<g transform="translate(0.000000,500.000000) scale(0.100000,-0.100000)"
fill="#000000" stroke="none">
<path d="M2390 4269 c-148 -18 -329 -82 -451 -161 -203 -132 -362 -354 -426
-594 -23 -86 -26 -119 -26 -249 0 -130 3 -163 26 -250 102 -385 388 -653 796
-745 75 -17 320 -15 401 3 232 53 417 163 566 335 89 104 149 208 190 331 45
135 58 229 51 369 -18 369 -212 679 -530 847 -176 93 -407 137 -597 114z m244
-375 c72 -30 147 -62 166 -70 19 -9 100 -43 180 -77 l145 -62 3 -42 3 -43
-625 0 -626 0 0 43 0 44 243 102 c133 57 265 113 292 126 47 21 75 32 84 34 1
1 62 -24 135 -55z m-506 -641 l-3 -278 -82 -3 -83 -3 0 281 0 280 85 0 85 0
-2 -277z m302 -3 l0 -280 -80 0 -80 0 0 280 0 280 80 0 80 0 0 -280z m308 3
l-3 -278 -82 -3 -83 -3 0 281 0 280 85 0 85 0 -2 -277z m302 -3 l0 -280 -80 0
-80 0 0 280 0 280 80 0 80 0 0 -280z m88 -429 l3 -81 -626 0 -625 0 0 83 0 82
622 -1 623 -2 3 -81z"/>
<path d="M808 1570 l-3 -282 -37 -34 c-43 -39 -88 -45 -143 -18 -30 14 -65 64
-65 93 0 7 -26 11 -70 11 l-70 0 0 -40 c0 -119 113 -209 261 -210 128 0 202
38 246 129 l28 56 0 285 0 285 -72 3 -72 3 -3 -281z"/>
<path d="M1150 1778 c-2 -363 1 -475 16 -520 20 -62 81 -122 150 -148 77 -28
202 -28 281 1 71 27 145 97 163 154 15 44 26 469 15 542 l-6 43 -69 0 -69 0
-3 -269 c-3 -255 -4 -271 -24 -298 -47 -64 -152 -82 -234 -40 -77 38 -80 52
-80 350 l0 257 -70 0 -70 0 0 -72z"/>
<path d="M1970 1470 l0 -380 70 0 70 0 0 125 0 125 73 0 73 0 80 -125 79 -125
78 0 c42 0 77 3 77 8 0 4 -34 63 -75 131 -75 125 -86 151 -62 151 30 0 86 62
107 118 46 120 9 250 -88 308 -64 39 -102 44 -313 44 l-169 0 0 -380z m397
224 c40 -30 57 -89 41 -139 -22 -66 -52 -79 -184 -83 l-114 -4 0 119 c0 66 3
123 8 127 4 4 55 6 114 4 89 -3 112 -7 135 -24z"/>
<path d="M2730 1470 l0 -380 75 0 75 0 -2 378 -3 377 -72 3 -73 3 0 -381z"/>
<path d="M3078 1832 c-3 -11 -5 -182 -4 -379 l1 -358 175 1 c155 0 181 3 231
22 85 34 144 77 183 137 115 173 72 419 -92 523 -79 51 -140 64 -323 69 -161
5 -166 5 -171 -15z m370 -138 c82 -34 122 -96 129 -199 7 -96 -9 -150 -61
-201 -50 -51 -93 -64 -208 -64 l-88 0 0 240 0 240 95 0 c64 0 108 -5 133 -16z"/>
<path d="M4072 1823 c-10 -27 -56 -138 -196 -478 -37 -88 -76 -181 -86 -207
l-20 -48 71 0 70 0 16 38 c8 20 24 56 34 80 l19 42 165 0 c119 0 166 -3 172
-12 4 -7 20 -42 34 -78 l27 -65 76 -3 76 -3 -10 26 c-5 14 -18 45 -29 68 -11
24 -30 68 -41 98 -12 30 -28 68 -35 84 -16 34 -133 316 -173 418 l-27 67 -66
0 c-64 0 -68 -1 -77 -27z m106 -226 c64 -169 72 -193 72 -202 0 -10 -195 -19
-211 -10 -4 3 13 56 38 118 25 61 49 122 54 135 5 12 12 22 16 22 5 0 19 -28
31 -63z"/>
</g>
</svg>
